<svg width="21" height="24" viewBox="0 0 21 24" fill="none" xmlns="http://www.w3.org/2000/svg">
<g clip-path="url(#clip0_1317_194)">
<path d="M7.46719 0.253332C7.83281 -0.0888551 8.4 -0.0841676 8.76562 0.25802C10.0594 1.47208 11.2734 2.77989 12.4078 4.19552C12.9234 3.52052 13.5094 2.78458 14.1422 2.18458C14.5125 1.83771 15.0844 1.83771 15.4547 2.18927C17.0766 3.73615 18.45 5.77989 19.4156 7.72052C20.3672 9.63302 21 11.5877 21 12.9658C21 18.9471 16.3219 24.0002 10.5 24.0002C4.6125 24.0002 0 18.9424 0 12.9611C0 11.1611 0.834375 8.96271 2.12813 6.78771C3.43594 4.5799 5.28281 2.27833 7.46719 0.253332ZM10.5797 19.5002C11.7656 19.5002 12.8156 19.1721 13.8047 18.5158C15.7781 17.1377 16.3078 14.3815 15.1219 12.2158C14.9109 11.794 14.3719 11.7658 14.0672 12.1221L12.8859 13.4955C12.5766 13.8518 12.0188 13.8424 11.7281 13.4721C10.9547 12.4877 9.57187 10.7299 8.78437 9.73146C8.48906 9.35646 7.92656 9.35177 7.62656 9.72677C6.04219 11.719 5.24531 12.9752 5.24531 14.3861C5.25 17.5971 7.62187 19.5002 10.5797 19.5002Z" fill="#EF4444"/>
</g>
<defs>
<clipPath id="clip0_1317_194">
<path d="M0 0H21V24H0V0Z" fill="white"/>
</clipPath>
</defs>
</svg>
