<svg width="21" height="33" viewBox="0 0 21 33" fill="none" xmlns="http://www.w3.org/2000/svg">
<path d="M21 33H0V0H21V33Z" stroke="#E5E7EB"/>
<g clip-path="url(#clip0_1321_34)">
<path d="M7.46719 5.25333C7.83281 4.91114 8.4 4.91583 8.76562 5.25802C10.0594 6.47208 11.2734 7.77989 12.4078 9.19552C12.9234 8.52052 13.5094 7.78458 14.1422 7.18458C14.5125 6.83771 15.0844 6.83771 15.4547 7.18927C17.0766 8.73614 18.45 10.7799 19.4156 12.7205C20.3672 14.633 21 16.5877 21 17.9658C21 23.9471 16.3219 29.0002 10.5 29.0002C4.6125 29.0002 0 23.9424 0 17.9611C0 16.1611 0.834375 13.9627 2.12813 11.7877C3.43594 9.57989 5.28281 7.27833 7.46719 5.25333ZM10.5797 24.5002C11.7656 24.5002 12.8156 24.1721 13.8047 23.5158C15.7781 22.1377 16.3078 19.3815 15.1219 17.2158C14.9109 16.794 14.3719 16.7658 14.0672 17.1221L12.8859 18.4955C12.5766 18.8518 12.0187 18.8424 11.7281 18.4721C10.9547 17.4877 9.57187 15.7299 8.78437 14.7315C8.48906 14.3565 7.92656 14.3518 7.62656 14.7268C6.04219 16.719 5.24531 17.9752 5.24531 19.3861C5.25 22.5971 7.62187 24.5002 10.5797 24.5002Z" fill="#EF4444"/>
</g>
<defs>
<clipPath id="clip0_1321_34">
<path d="M0 5H21V29H0V5Z" fill="white"/>
</clipPath>
</defs>
</svg>
