<svg width="25" height="18" viewBox="0 0 25 18" fill="none" xmlns="http://www.w3.org/2000/svg">
<path d="M1.25 0C1.94141 0 2.5 0.558594 2.5 1.25V11.25H11.25V5C11.25 4.30859 11.8086 3.75 12.5 3.75H21.25C23.3203 3.75 25 5.42969 25 7.5V16.25C25 16.9414 24.4414 17.5 23.75 17.5C23.0586 17.5 22.5 16.9414 22.5 16.25V15H13.75H12.5H2.5V16.25C2.5 16.9414 1.94141 17.5 1.25 17.5C0.558594 17.5 0 16.9414 0 16.25V1.25C0 0.558594 0.558594 0 1.25 0ZM6.875 3.75C7.7038 3.75 8.49866 4.07924 9.08471 4.66529C9.67076 5.25134 10 6.0462 10 6.875C10 7.7038 9.67076 8.49866 9.08471 9.08471C8.49866 9.67076 7.7038 10 6.875 10C6.0462 10 5.25134 9.67076 4.66529 9.08471C4.07924 8.49866 3.75 7.7038 3.75 6.875C3.75 6.0462 4.07924 5.25134 4.66529 4.66529C5.25134 4.07924 6.0462 3.75 6.875 3.75Z" fill="#3B82F6"/>
</svg>
