<svg width="24" height="24" viewBox="0 0 24 24" fill="none" xmlns="http://www.w3.org/2000/svg">
<g clip-path="url(#clip0_1321_32)">
<path d="M17.7787 0.22041C17.4881 -0.0702149 17.01 -0.0702149 16.7193 0.22041L15.9693 0.97041C15.6787 1.26104 15.6787 1.73916 15.9693 2.02979L16.7193 2.77979C17.01 3.07041 17.4881 3.07041 17.7787 2.77979L18.5287 2.02979C18.8193 1.73916 18.8193 1.26104 18.5287 0.97041L17.7787 0.22041ZM5.39902 7.9501C5.77402 7.66885 6.23809 7.5001 6.74902 7.5001C7.99121 7.5001 8.99902 8.50791 8.99902 9.7501C8.99902 10.9923 7.99121 12.0001 6.74902 12.0001H5.1459C4.78965 12.0001 4.49902 12.2907 4.49902 12.647C4.49902 12.7173 4.5084 12.7829 4.53184 12.8532L4.90684 13.9782C5.11309 14.5923 5.68496 15.0048 6.33184 15.0048H6.74902H7.49902C9.15371 15.0048 10.499 16.3501 10.499 18.0048C10.499 19.6595 9.15371 21.0048 7.49902 21.0048C5.11777 21.0048 3.62246 19.997 2.7084 18.9985C2.24434 18.4923 1.93027 17.986 1.72871 17.6063C1.63027 17.4188 1.55996 17.2642 1.51777 17.1563C1.49434 17.1048 1.48027 17.0626 1.4709 17.0392L1.46152 17.0157V17.011C1.33965 16.6454 0.959962 16.4345 0.584962 16.5188C0.205275 16.6032 -0.0431629 16.9595 0.00371209 17.3438L0.749025 17.2501C0.00371215 17.3438 0.00371209 17.3438 0.00371209 17.3438V17.3485L0.00839959 17.3673C0.00839959 17.3813 0.0130871 17.4048 0.0177746 17.4282C0.0271496 17.4798 0.0365246 17.5548 0.0552746 17.6438C0.0927746 17.8267 0.149025 18.0845 0.238087 18.3892C0.416212 18.9985 0.7209 19.8142 1.23652 20.6392C2.28184 22.322 4.18965 24.0001 7.49902 24.0001C10.8131 24.0001 13.499 21.3142 13.499 18.0001C13.499 16.9079 13.2084 15.8813 12.6975 15.0001H13.7568C14.9521 15.0001 16.0959 14.5267 16.9396 13.6829L18.1818 12.4407C18.4631 12.1595 18.8428 12.0001 19.2412 12.0001H19.499C20.3287 12.0001 20.999 12.6704 20.999 13.5001V18.0001C20.999 18.8298 20.3287 19.5001 19.499 19.5001C18.2943 19.5001 17.5584 18.9142 17.099 18.3001C16.8646 17.986 16.7053 17.672 16.6068 17.4282C16.5553 17.311 16.5225 17.2126 16.5037 17.147C16.4943 17.1142 16.485 17.0907 16.4803 17.0767L16.4756 17.0626C16.3865 16.7204 16.0725 16.4813 15.7162 16.4954C15.36 16.5095 15.0646 16.772 15.0084 17.1235L15.749 17.2501C15.0084 17.1282 15.0084 17.1282 15.0084 17.1282V17.1329L15.0037 17.147C15.0037 17.161 14.999 17.1751 14.9943 17.1985C14.9896 17.2407 14.9803 17.297 14.9756 17.3673C14.9615 17.5079 14.9475 17.7095 14.9475 17.9485C14.9475 18.422 14.999 19.0688 15.2193 19.7345C15.4443 20.4048 15.8475 21.1079 16.56 21.6423C17.2818 22.186 18.2475 22.5001 19.499 22.5001C21.9834 22.5001 23.999 20.4845 23.999 18.0001V13.5001C23.999 11.0157 21.9834 9.0001 19.499 9.0001H19.2412C18.0459 9.0001 16.9021 9.47354 16.0584 10.3173L14.8162 11.5595C14.535 11.8407 14.1553 12.0001 13.7568 12.0001H11.4928C11.8162 11.3204 11.999 10.5563 11.999 9.7501C11.999 6.84854 9.65059 4.5001 6.74902 4.5001C5.56777 4.5001 4.47559 4.88916 3.59902 5.5501C2.93809 6.04697 2.80215 6.98916 3.29902 7.6501C3.7959 8.31104 4.73809 8.44697 5.39902 7.9501ZM13.1662 3.12666C12.885 2.93916 12.51 2.9626 12.2521 3.1876C11.9943 3.4126 11.924 3.78291 12.0787 4.0876L12.749 3.7501C12.0787 4.0876 12.0787 4.0876 12.0787 4.0876V4.09229L12.0834 4.10166L12.1021 4.13447C12.1162 4.1626 12.1396 4.2001 12.1678 4.24697C12.224 4.34072 12.3037 4.47197 12.4068 4.63135C12.6131 4.94541 12.9271 5.35791 13.3443 5.7751C14.174 6.61416 15.4818 7.5001 17.249 7.5001C18.7115 7.5001 19.9021 7.0126 20.7131 6.55322C21.1209 6.31885 21.4443 6.08916 21.6693 5.90635C21.7818 5.81729 21.8709 5.7376 21.9365 5.67666C21.9693 5.64854 21.9975 5.62041 22.0162 5.60166L22.0443 5.57822L22.0537 5.56885L22.0584 5.56416C22.0584 5.56416 22.0584 5.56416 20.999 4.50479L22.0584 5.56416C22.6443 4.97822 22.6443 4.02666 22.0584 3.44072C21.4771 2.85947 20.5303 2.85479 19.9443 3.43135C19.9396 3.43604 19.935 3.44072 19.9209 3.4501C19.8975 3.47354 19.8506 3.51104 19.7896 3.5626C19.6631 3.66572 19.4709 3.80635 19.2225 3.94697C18.7209 4.2376 18.0365 4.5001 17.249 4.5001C16.274 4.5001 15.2615 4.17197 14.46 3.81572C14.0662 3.64229 13.7381 3.46416 13.5084 3.33291C13.3959 3.26729 13.3068 3.21572 13.2459 3.17822C13.2178 3.15947 13.1943 3.14541 13.1803 3.13604L13.1662 3.12666Z" fill="#F97316"/>
</g>
<defs>
<clipPath id="clip0_1321_32">
<path d="M0 0H24V24H0V0Z" fill="white"/>
</clipPath>
</defs>
</svg>
