<svg width="30" height="24" viewBox="0 0 30 24" fill="none" xmlns="http://www.w3.org/2000/svg">
<g clip-path="url(#clip0_1317_213)">
<path d="M16.4625 0.225088C16.6125 0.131338 16.7719 0.0704002 16.9313 0.0329002C17.1516 -0.0139748 17.3812 -0.00928725 17.5922 0.0375877C17.9531 0.121963 18.2859 0.342275 18.5016 0.675088L24.1219 9.10321C24.5344 9.71728 24.75 10.4438 24.75 11.1845V14.6298C24.75 14.9532 24.9563 15.2391 25.2609 15.3423L28.9734 16.5798C29.5875 16.7813 30 17.3532 30 18.0001V22.5001C30 22.9641 29.7844 23.4048 29.4141 23.6907C29.0438 23.9767 28.5656 24.0704 28.1156 23.9485L20.2031 21.8391C17.5781 21.1407 15.75 18.7595 15.75 16.0407V10.5001C15.75 9.6704 16.4203 9.00009 17.25 9.00009C18.0797 9.00009 18.75 9.6704 18.75 10.5001V14.2501C18.75 14.6626 19.0875 15.0001 19.5 15.0001C19.9125 15.0001 20.25 14.6626 20.25 14.2501V10.2704C20.25 9.94228 20.1656 9.62353 20.0016 9.34228L15.9516 2.25478C15.8719 2.11415 15.8156 1.96884 15.7828 1.81884C15.7359 1.59853 15.7359 1.36884 15.7875 1.1579C15.8766 0.7829 16.1063 0.4454 16.4578 0.225088H16.4625ZM13.5375 0.225088C13.8891 0.440713 14.1188 0.7829 14.2078 1.1579C14.2594 1.37353 14.2641 1.59853 14.2125 1.81884C14.1797 1.96884 14.1234 2.11415 14.0438 2.25478L9.99844 9.34228C9.83438 9.62353 9.75 9.94696 9.75 10.2704V14.2501C9.75 14.6626 10.0875 15.0001 10.5 15.0001C10.9125 15.0001 11.25 14.6626 11.25 14.2501V10.5001C11.25 9.6704 11.9203 9.00009 12.75 9.00009C13.5797 9.00009 14.25 9.6704 14.25 10.5001V16.0454C14.25 18.7641 12.4219 21.1407 9.79688 21.8438L1.88906 23.9532C1.43906 24.0751 0.95625 23.9767 0.590625 23.6954C0.225 23.4142 0 22.9688 0 22.5001V18.0001C0 17.3532 0.4125 16.7813 1.02656 16.5751L4.73906 15.3376C5.04375 15.2345 5.25 14.9485 5.25 14.6251V11.1798C5.25 10.4392 5.47031 9.71728 5.87813 9.09853L11.4937 0.679775C11.7094 0.346963 12.0422 0.12665 12.4031 0.0422752C12.6188 -0.00928726 12.8438 -0.0139748 13.0641 0.0375877C13.2281 0.0750877 13.3875 0.136025 13.5328 0.229775L13.5375 0.225088Z" fill="#A855F7"/>
</g>
<defs>
<clipPath id="clip0_1317_213">
<path d="M0 0H30V24H0V0Z" fill="white"/>
</clipPath>
</defs>
</svg>
