<svg width="15" height="17" viewBox="0 0 15 17" fill="none" xmlns="http://www.w3.org/2000/svg">
<path d="M13.9287 0.5C14.2491 0.500074 14.5 0.754929 14.5 1.0625V15.9375C14.5 16.2451 14.2491 16.4999 13.9287 16.5C13.6083 16.5 13.3574 16.2451 13.3574 15.9375V11.1875H11.7861C10.8764 11.1875 10.1426 10.4545 10.1426 9.5625V5.84375C10.1426 3.60313 11.0139 2.27893 11.9111 1.50781C12.3663 1.11669 12.837 0.861236 13.2217 0.704102C13.4139 0.625593 13.5822 0.572422 13.7119 0.540039C13.7767 0.523874 13.83 0.513141 13.8701 0.506836C13.9118 0.500292 13.9299 0.500018 13.9287 0.5ZM3.29102 5.35645L3.28125 5.37988L2.97949 6.07812H4.52051L4.21875 5.37988L4.20898 5.35645L3.75 4.29492L3.29102 5.35645ZM3.17871 8.03027L2.72363 7.98828C1.47218 7.87492 0.500201 6.83448 0.5 5.5752C0.5 5.39951 0.519753 5.22313 0.558594 5.0498L1.57129 0.526367L1.57227 0.527344C1.5746 0.517202 1.57992 0.510175 1.58594 0.505859C1.59131 0.502069 1.59875 0.498737 1.61035 0.5C1.62374 0.50153 1.63136 0.507014 1.63574 0.511719C1.64006 0.516481 1.64258 0.522582 1.64258 0.53125V1.03125H1.64648V4.9873C1.64659 5.44659 2.02168 5.8125 2.47461 5.8125C2.90613 5.81236 3.25815 5.48379 3.2998 5.0625L3.30078 5.05957L3.71582 0.530273V0.527344C3.71647 0.519718 3.71919 0.513717 3.72461 0.508789C3.73022 0.503711 3.73844 0.5 3.75 0.5C3.76156 0.5 3.76978 0.503711 3.77539 0.508789C3.78081 0.513717 3.78353 0.519717 3.78418 0.527344V0.53125L4.20312 5.05957V5.0625C4.24478 5.48388 4.59765 5.8125 5.0293 5.8125C5.4821 5.81235 5.85732 5.44649 5.85742 4.9873V0.53125C5.85742 0.522701 5.85984 0.516767 5.86426 0.511719C5.869 0.506459 5.87665 0.501217 5.8877 0.5C5.89896 0.498845 5.9083 0.501909 5.91504 0.506836L5.92773 0.525391L6.94141 5.0498C6.98025 5.22313 7 5.39951 7 5.5752C6.9998 6.83448 6.02782 7.87492 4.77637 7.98828L4.32129 8.03027V15.9375C4.32129 16.2451 4.07044 16.5 3.75 16.5C3.42956 16.5 3.17871 16.2451 3.17871 15.9375V8.03027Z" fill="black" stroke="black"/>
</svg>
