<svg width="17" height="19" viewBox="0 0 17 19" fill="none" xmlns="http://www.w3.org/2000/svg">
<path d="M5.42857 2.38141e-05C2.74945 -0.0113762 0 4.07145 0 9.50002V12.2143C0 13.5715 1.35714 14.9286 2.71429 14.9286H13.5714C14.9286 14.9286 16.2857 13.5715 16.2857 12.2143V9.50002C16.2857 4.07145 13.5714 2.38141e-05 10.8571 2.38141e-05H5.42857ZM4.07143 4.07145H12.2143C12.2143 4.07145 13.5714 5.4286 13.5714 8.14288H2.7567C2.70704 5.4172 4.07143 4.07145 4.07143 4.07145ZM2.71429 10.8572H6.78571V12.2143H2.71429V10.8572ZM9.5 10.8572H13.5714V12.2143H9.5V10.8572ZM1.35714 16.2857L0 19H4.07143L5.42857 16.2857H1.35714ZM10.8571 16.2857L12.2143 19H16.2857L14.9286 16.2857H10.8571Z" fill="#EF4444"/>
</svg>
