<svg width="20" height="20" viewBox="0 0 20 20" fill="none" xmlns="http://www.w3.org/2000/svg">
<path d="M15.3652 0.366211C15.8535 -0.12207 16.6465 -0.12207 17.1348 0.366211L19.6348 2.86621C20.123 3.35449 20.123 4.14746 19.6348 4.63574C19.1738 5.09668 18.4355 5.12402 17.9473 4.70996L17.5762 5.08105L15.6699 6.9873C15.3105 7.34668 15.2207 7.88183 15.334 8.37793C15.7012 9.97558 15.2598 11.7217 14.0137 12.9678L7.70508 19.2686C6.72852 20.2451 5.14648 20.2451 4.16992 19.2686L0.732422 15.8311C-0.244141 14.8545 -0.244141 13.2725 0.732422 12.2959L7.03711 5.9873C8.2832 4.74121 10.0293 4.30371 11.627 4.66699C12.1191 4.78027 12.6582 4.68652 13.0137 4.33105L14.9199 2.4248L15.291 2.05371C14.877 1.56152 14.9004 0.827148 15.3652 0.366211ZM3.87695 13.5654L6.43164 16.1201C6.67383 16.3623 7.07227 16.3623 7.31445 16.1201L11.1191 12.3154C11.3613 12.0732 11.3613 11.6748 11.1191 11.4326L8.56445 8.87793C8.32227 8.63574 7.92383 8.63574 7.68164 8.87793L3.87695 12.6826C3.63477 12.9248 3.63477 13.3232 3.87695 13.5654Z" fill="#EC4899"/>
</svg>
